<?xml version="1.0" standalone="no"?>
<!DOCTYPE svg PUBLIC "-//W3C//DTD SVG 20010904//EN"
 "http://www.w3.org/TR/2001/REC-SVG-20010904/DTD/svg10.dtd">
<svg version="1.0" xmlns="http://www.w3.org/2000/svg"
 width="500.000000pt" height="500.000000pt" viewBox="0 0 500.000000 500.000000"
 preserveAspectRatio="xMidYMid meet">

<g transform="translate(0.000000,500.000000) scale(0.100000,-0.100000)"
fill="#000000" stroke="none">
<path d="M2363 3773 c-36 -7 -53 -41 -53 -104 0 -63 15 -85 66 -95 41 -8 106
16 120 45 7 13 18 27 24 31 26 16 -2 32 -47 27 -53 -6 -64 -14 -40 -31 29 -22
15 -46 -28 -46 -45 0 -63 102 -25 140 11 11 24 20 28 20 5 0 17 -9 27 -20 32
-36 71 -20 46 19 -9 14 -80 23 -118 14z"/>
<path d="M2106 3731 c-3 -5 -2 -31 3 -57 5 -27 8 -51 5 -53 -2 -2 -26 17 -53
42 -36 34 -54 44 -70 40 -26 -7 -26 -8 1 -104 16 -61 25 -79 39 -79 22 0 28
18 17 52 -17 48 -4 53 39 15 39 -36 83 -49 83 -25 0 7 -5 49 -12 95 -10 68
-15 83 -29 83 -10 0 -20 -4 -23 -9z"/>
<path d="M2953 3708 c-11 -15 -43 -129 -43 -153 0 -19 57 -45 98 -45 47 0 62
26 59 105 l-2 69 -50 18 c-27 10 -51 18 -51 18 -1 0 -6 -6 -11 -12z m67 -42
c0 -18 -16 -29 -30 -21 -13 8 -1 35 16 35 8 0 14 -6 14 -14z m-2 -94 c-2 -19
-10 -28 -26 -30 -28 -4 -39 21 -23 54 9 21 14 23 32 14 14 -8 19 -19 17 -38z"/>
<path d="M1720 3621 c-46 -23 -55 -31 -52 -51 3 -27 57 -146 69 -153 12 -7
133 50 133 63 0 13 -10 13 -58 -4 -35 -13 -42 -13 -52 -1 -10 12 -5 18 24 32
20 9 36 23 36 30 0 17 -18 16 -53 -2 -26 -14 -28 -13 -37 11 -14 37 -13 39 25
57 19 9 35 23 35 32 0 20 -5 19 -70 -14z"/>
<path d="M3237 3558 c-57 -71 -69 -104 -42 -114 9 -4 23 3 34 17 18 22 20 22
44 6 19 -12 25 -24 24 -49 -2 -23 3 -33 15 -36 12 -2 20 7 27 35 30 105 26
153 -14 171 -41 19 -51 15 -88 -30z m73 -33 c0 -36 -12 -43 -39 -26 -12 8 -12
13 3 35 23 36 36 32 36 -9z"/>
<path d="M1430 3467 c-33 -16 -35 -42 -10 -108 29 -78 44 -97 64 -80 11 10 13
18 6 31 -14 26 -13 27 15 46 25 16 27 16 51 -7 22 -20 26 -21 40 -8 13 14 10
20 -27 63 -37 42 -85 76 -106 76 -4 0 -19 -6 -33 -13z m58 -50 l21 -23 -21
-13 c-24 -15 -38 -2 -38 37 0 28 11 28 38 -1z"/>
<path d="M3523 3433 c-46 -60 -75 -112 -68 -123 9 -14 26 -12 46 6 17 15 18
14 24 -19 4 -20 15 -43 26 -53 17 -16 19 -16 25 0 4 10 2 28 -5 42 -19 43 -13
51 50 68 76 22 74 42 -5 39 -60 -2 -64 1 -41 31 11 14 12 23 4 33 -17 20 -25
16 -56 -24z"/>
<path d="M1151 3260 c-59 -47 -61 -40 23 -127 28 -29 55 -53 61 -53 6 0 33 21
59 47 55 55 55 77 3 130 -51 52 -83 53 -146 3z m108 -29 c33 -31 38 -50 21
-82 -16 -29 -31 -24 -80 27 l-45 45 24 20 c31 26 43 24 80 -10z"/>
<path d="M3751 3214 c-33 -37 -61 -71 -61 -77 0 -14 92 -96 108 -97 21 0 13
17 -24 49 -29 26 -33 35 -24 46 10 12 17 11 45 -11 44 -33 58 -13 19 27 l-28
29 21 22 22 21 31 -27 c32 -27 65 -35 58 -14 -2 6 -27 31 -55 55 l-51 44 -61
-67z"/>
<path d="M2427 3188 c-33 -15 -49 -28 -54 -46 -14 -56 40 -76 128 -47 28 10
52 15 53 14 24 -28 76 -299 76 -395 0 -68 -22 -142 -47 -161 -48 -36 -98 68
-148 302 -29 138 -62 194 -150 254 -90 62 -187 75 -298 41 -53 -17 -73 -29
-107 -67 -22 -25 -43 -56 -46 -69 -4 -14 -16 -24 -35 -28 -48 -9 -105 -52
-133 -100 -30 -51 -33 -87 -10 -110 21 -21 47 -20 95 4 37 19 99 90 99 114 0
6 4 17 9 25 8 12 18 8 59 -18 122 -78 251 -269 252 -371 0 -40 -7 -53 -37 -68
-26 -14 -85 4 -136 41 -17 13 -77 58 -133 99 -119 89 -186 122 -281 137 -181
31 -315 -68 -464 -342 -113 -209 -249 -307 -478 -343 -91 -14 -108 -14 -203 1
-57 9 -128 25 -158 36 -52 19 -55 19 -67 3 -20 -27 -17 -31 40 -52 107 -41
141 -46 287 -46 125 -1 155 3 220 23 152 48 305 167 376 291 93 165 134 227
182 277 95 98 196 125 314 84 81 -28 103 -41 229 -137 63 -47 137 -97 164
-110 165 -78 254 47 169 235 -52 114 -171 250 -265 304 -21 12 -39 26 -39 31
0 22 47 76 80 92 19 9 69 19 111 22 67 4 84 1 130 -20 99 -45 147 -112 169
-238 32 -179 92 -321 149 -351 29 -15 38 -16 65 -5 104 42 121 249 45 539 -11
43 -18 85 -15 93 8 21 129 19 186 -4 199 -78 226 -144 169 -402 -21 -96 -25
-221 -7 -253 39 -74 116 -58 222 48 55 55 86 121 86 182 0 13 3 23 6 23 14 0
187 -91 227 -119 68 -47 114 -102 147 -173 16 -37 30 -73 30 -81 0 -7 -28 -28
-62 -46 -35 -18 -110 -62 -167 -97 -133 -82 -159 -84 -251 -19 -69 49 -154 85
-198 85 -47 -1 -105 -35 -202 -118 -142 -122 -279 -187 -355 -168 -20 5 -33
23 -61 83 -45 100 -77 141 -128 164 -50 23 -146 25 -186 4 -31 -16 -79 -72
-129 -152 -72 -116 -99 -113 -411 40 -231 114 -303 120 -376 32 -82 -101 -32
-183 193 -316 187 -110 265 -141 448 -181 73 -16 145 -20 386 -25 186 -3 333
-1 395 6 231 26 285 33 414 57 74 13 151 29 170 34 19 5 76 19 125 31 245 59
397 145 460 261 26 47 30 63 30 138 0 47 -3 101 -8 121 l-7 36 62 25 c158 64
260 84 373 74 107 -10 160 -41 296 -172 65 -63 134 -121 153 -129 49 -21 142
-20 150 1 11 30 6 34 -44 34 -72 0 -117 27 -217 131 -147 152 -228 191 -390
191 -111 -1 -196 -20 -326 -73 -79 -32 -87 -34 -87 -19 0 5 -17 44 -37 86 -53
109 -126 172 -301 262 -135 70 -137 72 -166 127 -48 93 -104 120 -135 65 -12
-23 -12 -30 3 -62 10 -20 36 -49 59 -65 54 -36 57 -40 57 -91 0 -58 -28 -109
-95 -170 -88 -81 -119 -68 -112 45 2 37 13 115 25 173 12 58 22 126 22 151 0
66 -27 137 -69 178 -92 91 -279 145 -380 110 -25 -9 -38 -8 -65 5 -44 21 -61
20 -119 -6z m-637 -284 c0 -17 -64 -84 -81 -84 -18 0 -9 20 27 60 39 43 54 50
54 24z m1939 -668 c15 -59 14 -82 -4 -144 -38 -127 -199 -222 -490 -292 -595
-141 -1247 -159 -1579 -44 -130 45 -379 188 -440 253 -38 40 -39 83 -2 119 23
23 34 27 81 26 48 -1 82 -14 253 -97 108 -52 223 -101 254 -108 53 -11 60 -10
104 12 39 20 59 41 109 114 76 113 110 134 191 116 60 -14 100 -52 123 -118
23 -66 61 -122 93 -139 85 -44 259 29 423 175 144 129 185 131 349 19 104 -72
138 -69 294 26 159 98 207 126 218 126 7 0 17 -20 23 -44z"/>
<path d="M974 3065 c-4 -10 11 -34 40 -65 51 -54 50 -53 36 -81 -15 -26 -38
-24 -103 11 -47 25 -56 27 -61 14 -11 -28 -7 -33 47 -64 70 -40 88 -38 131 12
49 57 47 83 -12 141 -50 49 -69 57 -78 32z"/>
<path d="M3971 2987 c-39 -29 -71 -59 -71 -68 0 -19 26 -33 35 -19 13 21 25 8
25 -27 0 -21 4 -44 9 -52 14 -21 31 -3 31 32 0 24 3 28 12 19 7 -7 21 -12 31
-12 26 0 77 38 77 57 0 20 -52 112 -67 117 -6 3 -43 -19 -82 -47z m100 -28
c15 -30 -9 -54 -45 -45 -32 8 -33 30 -4 50 29 21 35 20 49 -5z"/>
<path d="M760 2781 c-9 -19 -5 -24 42 -53 l53 -33 -65 -8 c-114 -14 -119 -40
-16 -93 63 -33 76 -36 90 -25 20 17 9 33 -34 51 -39 16 -31 27 28 35 86 12 93
35 25 78 -120 74 -111 70 -123 48z"/>
<path d="M4183 2730 c-16 -29 -41 -57 -60 -67 -32 -17 -43 -45 -23 -58 5 -3
21 2 35 11 19 12 45 16 95 15 39 -1 70 2 70 7 0 16 -25 32 -51 32 -37 0 -43
13 -24 49 14 29 12 61 -5 61 -5 0 -21 -22 -37 -50z"/>
<path d="M1886 1426 c-4 -16 -13 -26 -24 -26 -24 0 -42 -19 -42 -46 0 -25 15
-40 52 -49 26 -7 26 -6 33 60 5 41 4 70 -2 76 -7 7 -13 2 -17 -15z m-8 -71
c-2 -14 -7 -26 -13 -26 -5 0 -11 12 -13 26 -2 18 1 25 13 25 12 0 15 -7 13
-25z"/>
<path d="M2570 1375 c0 -69 2 -75 21 -75 36 0 59 19 59 48 0 32 -16 52 -42 52
-13 0 -18 8 -18 25 0 14 -4 25 -10 25 -6 0 -10 -32 -10 -75z m56 -10 c6 -16
-12 -45 -27 -45 -5 0 -9 14 -9 30 0 32 26 43 36 15z"/>
<path d="M2798 1444 c-12 -11 -10 -144 2 -144 5 0 14 8 19 18 10 16 10 16 11
0 0 -10 5 -18 10 -18 6 0 9 25 8 60 -3 48 -6 60 -20 60 -9 0 -18 7 -20 16 -2
9 -6 12 -10 8z"/>
<path d="M3086 1428 c-10 -37 -7 -116 5 -123 17 -11 21 0 20 66 0 42 3 58 9
49 11 -18 25 -6 17 15 -10 23 -44 18 -51 -7z"/>
<path d="M1228 1399 c-21 -12 -24 -69 -6 -87 17 -17 55 -15 62 4 5 13 1 15
-18 10 -14 -3 -27 -2 -31 3 -3 5 7 11 22 13 34 4 43 36 17 55 -21 15 -24 16
-46 2z m37 -30 c-8 -12 -35 -12 -35 0 0 11 22 20 33 14 4 -2 5 -9 2 -14z"/>
<path d="M1438 1399 c-18 -10 -24 -52 -12 -83 8 -22 64 -22 64 0 0 11 -6 13
-19 9 -11 -3 -22 -1 -26 5 -4 6 4 10 19 10 33 0 46 38 20 57 -21 15 -24 16
-46 2z m37 -19 c3 -6 -1 -13 -10 -16 -19 -8 -30 0 -20 15 8 14 22 14 30 1z"/>
<path d="M1530 1355 c0 -30 5 -55 10 -55 6 0 10 17 10 38 0 44 14 73 23 48 8
-20 27 -21 27 -2 0 15 -21 26 -51 26 -16 0 -19 -7 -19 -55z"/>
<path d="M1970 1401 c-20 -5 -26 -14 -28 -42 -3 -30 1 -37 23 -47 41 -19 45
-15 45 43 0 30 -3 55 -7 54 -5 -1 -19 -4 -33 -8z m20 -45 c0 -14 -5 -28 -10
-31 -13 -8 -24 20 -16 40 9 24 26 17 26 -9z"/>
<path d="M2388 1399 c-22 -12 -24 -71 -4 -89 19 -15 58 -9 64 9 3 10 -2 12
-22 7 -14 -3 -26 -2 -26 3 0 5 10 11 22 13 29 4 36 37 12 55 -21 15 -24 16
-46 2z m33 -32 c-13 -13 -26 -3 -16 12 3 6 11 8 17 5 6 -4 6 -10 -1 -17z"/>
<path d="M2725 1402 c-50 -11 -62 -61 -20 -88 38 -25 55 -12 55 40 0 49 -5 55
-35 48z m15 -39 c0 -10 -4 -24 -9 -31 -11 -18 -34 10 -25 32 8 21 34 21 34 -1z"/>
<path d="M2896 1394 c-19 -18 -20 -33 -6 -69 8 -21 16 -26 37 -23 14 2 28 9
31 17 3 9 -1 11 -16 7 -11 -4 -23 -2 -27 4 -3 5 2 10 12 10 19 0 43 18 43 31
0 13 -31 39 -45 39 -7 0 -21 -7 -29 -16z m44 -25 c0 -5 -7 -9 -15 -9 -15 0
-20 12 -9 23 8 8 24 -1 24 -14z"/>
<path d="M3177 1392 c-43 -47 17 -124 61 -80 18 18 15 85 -4 92 -26 10 -40 7
-57 -12z m48 -38 c0 -19 -6 -30 -17 -32 -14 -3 -18 3 -18 26 0 16 3 32 7 36
14 13 28 -1 28 -30z"/>
<path d="M3288 1400 c-6 -20 4 -100 13 -100 5 0 9 20 9 44 0 46 13 68 24 40 3
-8 11 -12 16 -9 17 10 -9 35 -35 35 -13 0 -25 -5 -27 -10z"/>
<path d="M3592 1398 c-7 -7 -12 -26 -12 -43 0 -17 5 -36 12 -43 28 -28 78 -1
78 43 0 44 -50 71 -78 43z m48 -44 c0 -24 -5 -34 -15 -34 -22 0 -30 28 -15 55
17 32 30 23 30 -21z"/>
<path d="M1315 1368 c9 -41 23 -68 35 -68 13 0 19 12 26 58 8 50 -8 57 -24 10
l-10 -33 -1 33 c-1 22 -6 32 -17 32 -12 0 -14 -7 -9 -32z"/>
<path d="M1640 1366 c0 -33 20 -62 33 -49 4 3 7 -8 7 -25 0 -36 -15 -43 -23
-12 -7 28 -27 25 -27 -5 0 -18 7 -26 27 -31 38 -10 53 16 53 93 0 65 -16 88
-22 31 -4 -46 -28 -49 -28 -4 0 20 -4 36 -10 36 -5 0 -10 -15 -10 -34z"/>
<path d="M2050 1366 c0 -33 20 -62 33 -49 4 3 7 -8 7 -25 0 -36 -15 -43 -23
-12 -7 28 -27 25 -27 -5 0 -18 7 -26 25 -31 42 -10 55 10 55 87 0 69 -16 96
-22 37 -4 -46 -28 -49 -28 -4 0 20 -4 36 -10 36 -5 0 -10 -15 -10 -34z"/>
<path d="M2236 1358 c8 -53 18 -65 39 -48 14 12 18 11 25 -1 14 -21 31 1 37
50 6 47 -10 56 -25 14 -6 -16 -11 -22 -11 -15 -1 18 -29 14 -34 -5 -3 -10 -5
-3 -6 15 -1 21 -6 32 -16 32 -12 0 -14 -8 -9 -42z"/>
<path d="M3480 1365 c0 -28 5 -38 25 -47 26 -12 29 -17 19 -42 -8 -22 -21 -20
-27 4 -7 27 -29 26 -25 -1 4 -30 33 -47 56 -33 13 9 18 28 20 83 2 44 -1 71
-8 71 -5 0 -10 -16 -10 -35 0 -19 -4 -35 -9 -35 -11 0 -21 25 -21 51 0 10 -4
19 -10 19 -5 0 -10 -16 -10 -35z"/>
<path d="M3702 1353 c3 -44 5 -48 30 -51 22 -3 30 2 38 23 12 33 13 75 1 75
-11 0 -21 -25 -21 -56 0 -15 -6 -24 -15 -24 -11 0 -15 11 -15 40 0 22 -5 40
-11 40 -6 0 -9 -19 -7 -47z"/>
</g>
</svg>
